<?xml version="1.0" encoding="utf-8"?>
<!-- Generator: Adobe Illustrator 21.1.0, SVG Export Plug-In . SVG Version: 6.00 Build 0)  -->
<svg version="1.1" id="图层_1" xmlns="http://www.w3.org/2000/svg" xmlns:xlink="http://www.w3.org/1999/xlink" x="0px" y="0px"
	 viewBox="0 0 119 114" style="enable-background:new 0 0 119 114;" xml:space="preserve">
<style type="text/css">
	.st0{opacity:0.2;fill:#2E3642;}
	.st1{fill:#FFFFFF;}
	.st2{fill:#F5F5F5;}
	.st3{fill:#FFFFFF;stroke:#DBE6EC;stroke-miterlimit:10;}
	.st4{fill:#3FA9F5;}
	.st5{fill:#417BB6;}
	.st6{fill:none;stroke:#FFFFFF;stroke-width:1.2;stroke-miterlimit:10;}
	.st7{fill:none;stroke:#DBE6EC;stroke-miterlimit:10;}
	.st8{fill:#2E3642;}
	.st9{fill:#BFCEE1;}
	.st10{fill:#F5F8FB;}
	.st11{fill:none;stroke:#BCCEE3;stroke-miterlimit:10;}
	.st12{fill:none;stroke:#DDE6EB;stroke-miterlimit:10;}
	.st13{fill:#43BD9E;}
	.st14{fill:#69747B;}
	.st15{fill:#7460EF;}
	.st16{fill:none;stroke:#999999;stroke-miterlimit:10;}
	.st17{fill:none;stroke:#999999;stroke-miterlimit:10;stroke-dasharray:4,4;}
	.st18{fill:#031228;}
	.st19{fill:none;stroke:#031228;stroke-miterlimit:10;}
	.st20{fill:none;stroke:#417BB6;stroke-miterlimit:10;stroke-dasharray:6;}
	.st21{fill:none;stroke:#43BD9E;stroke-miterlimit:10;stroke-dasharray:6;}
	.st22{fill:none;stroke:#43BD9E;stroke-width:2;stroke-miterlimit:10;}
	.st23{fill:#FFC83F;}
	.st24{fill:none;stroke:#417BB6;stroke-width:2;stroke-miterlimit:10;}
	.st25{fill:none;stroke:#417BB6;stroke-miterlimit:10;}
	.st26{opacity:0.2;fill:#D7EBF9;}
	.st27{fill:none;stroke:#BFCEE1;stroke-miterlimit:10;}
	.st28{fill:#F4E25B;}
	.st29{fill:#D7EBF9;}
	.st30{fill:#E86861;}
	.st31{fill:#5DC591;}
	.st32{fill:none;stroke:#BFCEE1;stroke-width:2;stroke-miterlimit:10;}
	.st33{opacity:0.2;}
	.st34{fill:none;stroke:#69747B;stroke-miterlimit:10;}
	.st35{fill:none;stroke:#2E3642;stroke-miterlimit:10;}
	.st36{fill:#222830;}
	.st37{fill:none;stroke:#FF0000;stroke-miterlimit:10;}
	.st38{fill:#FF0000;}
	.st39{fill:#F5F5F5;stroke:#E6E6E6;stroke-miterlimit:10;}
	.st40{fill:#75C7E5;}
	.st41{fill:#F1F0F1;}
	.st42{fill:#277CBA;}
	.st43{fill:none;stroke:#43BD9E;stroke-miterlimit:10;}
	.st44{fill:#C2C2C2;}
	.st45{fill:#919191;}
	.st46{fill:#5A5A5A;}
	.st47{fill:#505B5D;}
	.st48{fill:#DBE6F1;}
	.st49{fill:none;stroke:#DAE6EB;stroke-miterlimit:10;}
	.st50{fill:#FFFFFF;stroke:#BFCEE1;stroke-miterlimit:10;}
	.st51{fill:#49A9EE;}
	.st52{opacity:0.3;fill:#F7931E;}
	.st53{fill:#F7931E;}
	.st54{fill:#999999;}
	.st55{fill:#BFBFBF;}
	.st56{fill:#3DB8C1;}
	.st57{fill:#FFBF00;}
	.st58{fill:#A2C24C;}
	.st59{fill:#F46E65;}
	.st60{fill:none;stroke:#999999;stroke-miterlimit:10;stroke-dasharray:3.9849,3.9849;}
	.st61{fill:#0E77CA;}
	.st62{fill:none;stroke:#108EE9;stroke-miterlimit:10;stroke-dasharray:6;}
	.st63{fill:none;stroke:#A2C24C;stroke-miterlimit:10;}
	.st64{fill:none;stroke:#A2C24C;stroke-miterlimit:10;stroke-dasharray:6;}
	.st65{fill:none;stroke:#108EE9;stroke-miterlimit:10;}
	.st66{opacity:0.8;}
	.st67{fill:#00A2AE;}
	.st68{fill:#108EE9;}
	.st69{fill:#29ABE2;}
	.st70{opacity:0.8;fill:#2E3642;}
	.st71{fill:#41D6C3;}
	.st72{fill:#779615;}
	.st73{fill:#D34040;}
	.st74{fill:#E09A00;}
	.st75{fill:#3B444F;}
	.st76{fill:none;stroke:#00B4A0;stroke-width:0.8;stroke-miterlimit:10;}
	.st77{fill:#BCBFC3;}
	.st78{fill:none;stroke:#E9E9E9;stroke-miterlimit:10;}
	.st79{fill:none;stroke:#E9E9E9;stroke-miterlimit:10;stroke-dasharray:3.9849,3.9849;}
	.st80{fill:none;stroke:#3DB8C1;stroke-miterlimit:10;}
	.st81{fill:none;stroke:#3DB8C1;stroke-miterlimit:10;stroke-dasharray:6;}
	.st82{fill:none;stroke:#49A9EE;stroke-miterlimit:10;}
	.st83{fill:#7EC2F3;}
	.st84{fill:#0C60AA;}
	.st85{fill:none;stroke:#E9E9E9;stroke-miterlimit:10;stroke-dasharray:3.9902,3.9902;}
	.st86{fill:#BED2E6;}
	.st87{fill:#18989B;}
	.st88{opacity:0;}
	.st89{fill:none;stroke:#D9D9D9;stroke-width:0.8;stroke-miterlimit:10;}
	.st90{fill:#222222;}
	.st91{fill:#404040;}
	.st92{fill:none;stroke:#5A5A5A;stroke-miterlimit:10;}
	.st93{opacity:0.5;fill:#49A9EE;}
	.st94{opacity:0.8;fill:#D2EAFB;}
	.st95{fill:none;stroke:#0C60AA;stroke-miterlimit:10;}
	.st96{opacity:0.3;fill:#FFFFFF;}
	.st97{fill:#D9D9D9;}
</style>
<g>
	<path class="st97" d="M95.1,101.8l4.5,5.2l-82.7,0l1-6.4l9.1-5l-1.4-10.7l12-1l0.6-5.6l14-1.2l0.8-10l2.4-3.2l5.6,1.2l0.6,5.3
		l9-0.6l0.6,10.1l10.1,3.9l0.6,7.8c0.9,1.2,5.3-0.7,6,0.4c0.8,1.1-0.7-1.1,0,0c-1,4.6,5.9,5.4,5.9,5.4L95.1,101.8z M84.2,68.2
		l-4.2-1.4c-1.4,1.1-2,2.3-1.6,3.5l2.1,2.4l3.2-1.1c1.2-0.4,1.5-1.1,1.2-2.1C84.8,69.1,84.5,68.7,84.2,68.2z M81.5,57
		c-0.9-0.4-1.9-0.5-2.9-0.2c-0.6,0.2-1.1,0.5-1.8,1.1l0.2,5l4.8-0.6c1.3-1.4,1.8-2.6,1.5-3.5C83,58.1,82.4,57.5,81.5,57z M96.3,63.9
		l0,0.1c-0.2,0.1-1.1-0.1-2.6-0.6c-0.8-0.3-1.5-0.5-2.3-0.8c-1.1,0.4-1.8,1.5-2,3.3c-0.3,1.8-0.1,3.6,0.5,5.4c0.2,0.5,0.5,1,1.1,1.6
		l1,1l1.8-0.1c2-0.9,3.2-1.4,3.5-1.5c0.7-0.4,1.2-1.3,1.5-2.7c0.3-1.4,0.2-2.7-0.3-4C98,64.2,97.3,63.6,96.3,63.9z M88.5,78.8
		l-1,3.8c0.8,0.7,1.9,1.2,3.4,1.4l3.5-1.2l-1.8-5.4L88.5,78.8z M106.5,72l-1.1,3.8c0.8,0.7,1.9,1.2,3.4,1.4l3.5-1.2l-1.8-5.4
		L106.5,72z M109.1,100.5l-1,3.8c0.8,0.7,1.9,1.2,3.4,1.4l3.5-1.2l-1.8-5.4L109.1,100.5z M108.1,83.6c-2-2.3-4.6-2.9-7.6-1.9
		l-0.5,0.1c-1.4,1.3-2.6,3.1-3.6,5.5c-1,2.3-1.2,4.1-0.8,5.4c0,0.1,1,1,2.8,2.6c1.9,1.6,3,2.7,3.3,3.2l5.7-1.9
		c0.7-0.2,1.3-0.5,1.9-0.9c0.6-0.4,1.1-0.9,1.6-1.4c0.4-0.5,0.7-1,0.9-1.5c0.2-0.5,0.2-1,0.1-1.4C110.6,87.6,109.4,85,108.1,83.6z
		 M49.6,59.3c-1,5.7-3.9,11-3.9,11s-6,0.5-11.6-1.1c-5.6-1.5-14.2-15.7-14.2-15.7l8.8-5.7L18.1,30.3l-8.3-1.8l-3.7-5.8l-1.6,1
		l-2.2-3.4l17.1-11l2.2,3.4l-1.6,1l3.7,5.8l-1.8,8.4l10.6,17.5l8.8-5.7C41.3,39.8,50.6,53.6,49.6,59.3z M11.6,25.9l7.4,1.6l1.6-7.4
		l-3.1-4.8l-9,5.8L11.6,25.9z"/>
</g>
</svg>
